<?xml version="1.0" standalone="no"?><!-- Generator: Gravit.io --><svg xmlns="http://www.w3.org/2000/svg" xmlns:xlink="http://www.w3.org/1999/xlink" style="isolation:isolate" viewBox="0 0 100 40" width="100" height="40"><defs><clipPath id="_clipPath_a230lIndJqL8HeM8na701onmrsn7PKfC"><rect width="100" height="40"/></clipPath></defs><g clip-path="url(#_clipPath_a230lIndJqL8HeM8na701onmrsn7PKfC)"><rect width="100" height="40" style="fill:rgb(0,0,0)"/><g style="isolation:isolate" id="Layer 0"/><path d=" M 44.336 10.137 L 44.336 10.137 Q 45.736 10.137 46.59 10.9 L 46.59 10.9 L 46.59 10.9 Q 47.444 11.663 47.444 12.951 L 47.444 12.951 L 47.444 12.951 Q 47.444 14.239 46.59 15.002 L 46.59 15.002 L 46.59 15.002 Q 45.736 15.765 44.336 15.765 L 44.336 15.765 L 42.194 15.765 L 42.194 19.377 L 41.074 19.377 L 41.074 10.137 L 44.336 10.137 L 44.336 10.137 Z  M 44.168 14.715 L 44.168 14.715 Q 45.246 14.715 45.757 14.274 L 45.757 14.274 L 45.757 14.274 Q 46.268 13.833 46.268 12.951 L 46.268 12.951 L 46.268 12.951 Q 46.268 12.069 45.757 11.628 L 45.757 11.628 L 45.757 11.628 Q 45.246 11.187 44.168 11.187 L 44.168 11.187 L 42.194 11.187 L 42.194 14.715 L 44.168 14.715 L 44.168 14.715 Z  M 50.734 18.327 L 56.026 18.327 L 56.026 19.377 L 49.614 19.377 L 49.614 10.137 L 50.734 10.137 L 50.734 18.327 L 50.734 18.327 Z  M 64.16 19.377 L 63.18 16.815 L 58.994 16.815 L 58.014 19.377 L 56.838 19.377 L 60.436 10.137 L 61.766 10.137 L 65.35 19.377 L 64.16 19.377 L 64.16 19.377 Z  M 59.4 15.765 L 62.774 15.765 L 61.528 12.489 L 61.094 11.201 L 61.066 11.201 L 60.66 12.447 L 59.4 15.765 L 59.4 15.765 Z  M 70.194 9.997 L 70.194 9.997 Q 72.672 9.997 73.764 11.957 L 73.764 11.957 L 72.798 12.741 L 72.798 12.741 Q 72.378 11.817 71.797 11.432 L 71.797 11.432 L 71.797 11.432 Q 71.216 11.047 70.208 11.047 L 70.208 11.047 L 70.208 11.047 Q 69.144 11.047 68.535 11.488 L 68.535 11.488 L 68.535 11.488 Q 67.926 11.929 67.926 12.615 L 67.926 12.615 L 67.926 12.615 Q 67.926 13.063 68.164 13.357 L 68.164 13.357 L 68.164 13.357 Q 68.402 13.651 68.955 13.868 L 68.955 13.868 L 68.955 13.868 Q 69.508 14.085 70.488 14.253 L 70.488 14.253 L 70.488 14.253 Q 72.322 14.561 73.085 15.177 L 73.085 15.177 L 73.085 15.177 Q 73.848 15.793 73.848 16.885 L 73.848 16.885 L 73.848 16.885 Q 73.848 17.669 73.407 18.264 L 73.407 18.264 L 73.407 18.264 Q 72.966 18.859 72.154 19.188 L 72.154 19.188 L 72.154 19.188 Q 71.342 19.517 70.278 19.517 L 70.278 19.517 L 70.278 19.517 Q 68.878 19.517 67.891 18.971 L 67.891 18.971 L 67.891 18.971 Q 66.904 18.425 66.386 17.515 L 66.386 17.515 L 67.352 16.731 L 67.352 16.731 Q 67.73 17.557 68.465 18.012 L 68.465 18.012 L 68.465 18.012 Q 69.2 18.467 70.306 18.467 L 70.306 18.467 L 70.306 18.467 Q 71.398 18.467 72.042 18.068 L 72.042 18.068 L 72.042 18.068 Q 72.686 17.669 72.686 16.941 L 72.686 16.941 L 72.686 16.941 Q 72.686 16.325 72.126 15.961 L 72.126 15.961 L 72.126 15.961 Q 71.566 15.597 70.138 15.345 L 70.138 15.345 L 70.138 15.345 Q 68.29 15.023 67.52 14.421 L 67.52 14.421 L 67.52 14.421 Q 66.75 13.819 66.75 12.741 L 66.75 12.741 L 66.75 12.741 Q 66.75 11.999 67.17 11.369 L 67.17 11.369 L 67.17 11.369 Q 67.59 10.739 68.374 10.368 L 68.374 10.368 L 68.374 10.368 Q 69.158 9.997 70.194 9.997 L 70.194 9.997 L 70.194 9.997 Z  M 85.132 10.137 L 85.132 19.377 L 84.068 19.377 L 84.068 13.567 L 84.194 11.131 L 84.18 11.131 L 81.142 19.377 L 80.19 19.377 L 77.152 11.131 L 77.138 11.131 L 77.264 13.567 L 77.264 19.377 L 76.2 19.377 L 76.2 10.137 L 77.922 10.137 L 79.952 15.751 L 80.652 18.061 L 80.68 18.061 L 81.394 15.765 L 83.41 10.137 L 85.132 10.137 L 85.132 10.137 Z  M 34.41 9.997 L 34.41 9.997 Q 35.81 9.997 36.825 10.564 L 36.825 10.564 L 36.825 10.564 Q 37.84 11.131 38.386 12.202 L 38.386 12.202 L 38.386 12.202 Q 38.932 13.273 38.932 14.757 L 38.932 14.757 L 38.932 14.757 Q 38.932 16.241 38.386 17.312 L 38.386 17.312 L 38.386 17.312 Q 37.84 18.383 36.825 18.95 L 36.825 18.95 L 36.825 18.95 Q 35.81 19.517 34.41 19.517 L 34.41 19.517 L 34.41 19.517 Q 33.01 19.517 31.988 18.95 L 31.988 18.95 L 31.988 18.95 Q 30.966 18.383 30.42 17.312 L 30.42 17.312 L 30.42 17.312 Q 29.874 16.241 29.874 14.757 L 29.874 14.757 L 29.874 14.757 Q 29.874 13.273 30.42 12.202 L 30.42 12.202 L 30.42 12.202 Q 30.966 11.131 31.988 10.564 L 31.988 10.564 L 31.988 10.564 Q 33.01 9.997 34.41 9.997 L 34.41 9.997 L 34.41 9.997 Z  M 34.41 11.887 L 34.41 11.887 Q 33.402 11.887 32.87 12.615 L 32.87 12.615 L 32.87 12.615 Q 32.338 13.343 32.338 14.757 L 32.338 14.757 L 32.338 14.757 Q 32.338 16.171 32.87 16.899 L 32.87 16.899 L 32.87 16.899 Q 33.402 17.627 34.41 17.627 L 34.41 17.627 L 34.41 17.627 Q 35.418 17.627 35.943 16.899 L 35.943 16.899 L 35.943 16.899 Q 36.468 16.171 36.468 14.757 L 36.468 14.757 L 36.468 14.757 Q 36.468 13.343 35.943 12.615 L 35.943 12.615 L 35.943 12.615 Q 35.418 11.887 34.41 11.887 L 34.41 11.887 L 34.41 11.887 Z  M 18.702 19.377 L 18.072 17.291 L 14.88 17.291 L 14.236 19.377 L 11.814 19.377 L 15.062 10.137 L 17.946 10.137 L 21.18 19.377 L 18.702 19.377 L 18.702 19.377 Z  M 15.384 15.653 L 17.568 15.653 L 16.896 13.441 L 16.49 11.985 L 16.462 11.985 L 16.084 13.427 L 15.384 15.653 L 15.384 15.653 Z " fill-rule="evenodd" fill="rgb(217,196,9)"/><path d=" M 22.174 11 C 25.631 19.508 31.912 27.852 40.986 36" fill="none" vector-effect="non-scaling-stroke" stroke-width="2" stroke="rgb(230,216,24)" stroke-linejoin="miter" stroke-linecap="square" stroke-miterlimit="3"/><path d=" M 27.685 11 C 22.111 20.647 16.398 28.991 10.515 36" fill="none" vector-effect="non-scaling-stroke" stroke-width="2" stroke="rgb(242,214,29)" stroke-linejoin="miter" stroke-linecap="square" stroke-miterlimit="3"/></g></svg>